<svg width="50" height="64" viewBox="0 0 50 64" fill="none" xmlns="http://www.w3.org/2000/svg">
<rect width="50" height="64" fill="white"/>
<path d="M35.7969 20.2031L31.3672 22.8281C30.5391 21.3906 29.75 20.4531 29 20.0156C28.2188 19.5156 27.2109 19.2656 25.9766 19.2656C24.4609 19.2656 23.2031 19.6953 22.2031 20.5547C21.2031 21.3984 20.7031 22.4609 20.7031 23.7422C20.7031 25.5078 22.0156 26.9297 24.6406 28.0078L28.25 29.4844C31.1875 30.6719 33.3359 32.125 34.6953 33.8438C36.0547 35.5469 36.7344 37.6406 36.7344 40.125C36.7344 43.4531 35.625 46.2031 33.4062 48.375C31.1719 50.5625 28.3984 51.6562 25.0859 51.6562C21.9453 51.6562 19.3516 50.7266 17.3047 48.8672C15.2891 47.0078 14.0312 44.3906 13.5312 41.0156L19.0625 39.7969C19.3125 41.9219 19.75 43.3906 20.375 44.2031C21.5 45.7656 23.1406 46.5469 25.2969 46.5469C27 46.5469 28.4141 45.9766 29.5391 44.8359C30.6641 43.6953 31.2266 42.25 31.2266 40.5C31.2266 39.7969 31.125 39.1562 30.9219 38.5781C30.7344 37.9844 30.4297 37.4453 30.0078 36.9609C29.6016 36.4609 29.0703 36 28.4141 35.5781C27.7578 35.1406 26.9766 34.7266 26.0703 34.3359L22.5781 32.8828C17.625 30.7891 15.1484 27.7266 15.1484 23.6953C15.1484 20.9766 16.1875 18.7031 18.2656 16.875C20.3438 15.0312 22.9297 14.1094 26.0234 14.1094C30.1953 14.1094 33.4531 16.1406 35.7969 20.2031Z" fill="black"/>
</svg>
